<svg width="100" height="100" viewBox="0 0 100 100" fill="none" xmlns="http://www.w3.org/2000/svg">
<rect width="100" height="100" rx="50" fill="white"/>
<path d="M52.2948 27.1466H44.2412C43.3175 27.1466 42.8557 27.3753 42.8557 27.8326V81H33.7629C31.8 81 30.501 80.7142 29.866 80.1425C29.2887 79.5136 29 78.2273 29 76.2835V23.888C29 21.887 29.2887 20.5722 29.866 19.9433C30.501 19.3144 31.8 19 33.7629 19H52.2948V27.1466ZM57.1443 54.0733H65.3711C67.7381 54.0733 69.268 54.6164 69.9608 55.7026C70.6536 56.7317 71 58.3896 71 60.6764V73.3679C71 77.1411 69.9897 79.4564 67.9691 80.314C66.9876 80.7713 65.7464 81 64.2454 81H46.3196V72.9391H53.5938C55.9608 72.9391 57.1443 72.1102 57.1443 70.4523V54.0733ZM56.0186 19H64.2454C66.5546 19 68.0268 19.5145 68.6619 20.5436C69.3546 21.5726 69.701 23.2591 69.701 25.603V42.0678C69.701 45.3836 69.0948 47.7847 67.8825 49.2711C66.7278 50.7575 64.2742 51.5007 60.5216 51.5007H46.3196V43.3541H52.7278C54.1711 43.3541 55.066 43.0111 55.4124 42.325C55.8165 41.639 56.0186 40.5814 56.0186 39.1521V19Z" fill="black"/>
</svg>
